<svg xmlns="http://www.w3.org/2000/svg" xmlns:xlink="http://www.w3.org/1999/xlink" version="1.1" id="Your_Icon" x="0px" y="0px" width="100px" height="100px" viewBox="0 0 100 100" enable-background="new 0 0 100 100" xml:space="preserve">
<g>
	<g>
		<g>
			<g>
			</g>
		</g>
		<g>
		</g>
	</g>
</g>
<path d="M85.07,19.736c-5.745-1.967-12.364-3.094-18.161-3.094c-5.236,0-12.874,1.693-20.259,3.329  c-4.877,1.081-9.866,2.186-14.064,2.781c1.232-3.504,2.444-8.527,0.488-11.099c-0.566-0.745-1.904-1.937-4.487-1.547  c-7.54,1.138-17.15,6.756-21.396,11.29l0.002,0.001c-1.362,1.335-2.178,3.299-2.178,5.145v46.421c0,3.117,5.484,6.521,7.842,7.842  c5.018,2.81,10.477,4.42,14.975,4.42c5.338,0,12.833-1.896,20.771-3.902c7.034-1.779,14.29-3.613,19.272-3.814  c-0.14,0.996-0.284,2.216-0.371,3.485c-0.328,4.824,0.336,7.49,2.155,8.646c1.17,0.743,2.443,1.066,3.775,1.066  c6.761,0,15.022-8.335,18.758-12.538c1.406-1.244,2.323-3.132,2.323-5.204V26.542C94.514,24.172,91.336,21.883,85.07,19.736   M29.174,13.997c0.458-0.069,0.725-0.019,0.77,0.038c0.717,0.943-0.101,5.121-1.728,9.146c-0.312,0.012-0.616,0.018-0.909,0.018  c-6.101,0-9.073-1.139-11.695-2.144c-0.445-0.171-0.882-0.335-1.321-0.493C18.636,17.545,24.554,14.694,29.174,13.997   M47.637,77.508c-7.354,1.861-14.958,3.783-19.807,3.783c-8.732,0-18.017-6.644-18.883-8.486V26.542c0-1.38,1.045-2.84,2.034-2.84  c0.086,0,0.171,0.011,0.26,0.032c0.983,0.236,1.9,0.588,2.963,0.995C17,25.8,20.479,27.132,27.307,27.132  c5.21,0,12.827-1.688,20.195-3.321c7.179-1.591,14.602-3.236,19.408-3.236c11.527,0,22.235,4.562,23.671,6.268v46.121  c0,1.434-1.094,2.79-2.25,2.79c-0.075,0-0.153-0.006-0.23-0.017c-1.22-0.172-2.333-0.407-3.51-0.655  c-3.386-0.716-7.224-1.528-15.844-1.528C63.272,73.554,55.324,75.564,47.637,77.508 M71.823,86.354  c-0.64-0.852-0.609-4.79,0.014-8.825c6.089,0.167,9.175,0.817,11.939,1.402c0.632,0.133,1.246,0.263,1.874,0.383  C79.717,85.037,74.336,87.862,71.823,86.354"/>
<path d="M70.605,51.321l4.825-4.492l4.525,5.369c0.39,0.462,0.945,0.699,1.505,0.699c0.449,0,0.898-0.152,1.267-0.464  c0.831-0.699,0.938-1.94,0.236-2.771l-4.65-5.515l5.536-5.153c0.795-0.74,0.84-1.985,0.101-2.78c-0.741-0.796-1.985-0.84-2.781-0.1  l-5.394,5.021l-4.09-4.849c-0.699-0.831-1.94-0.936-2.771-0.236s-0.937,1.941-0.236,2.771l4.213,4.997l-4.966,4.622  c-0.797,0.741-0.841,1.985-0.101,2.78c0.387,0.417,0.913,0.627,1.44,0.627C69.745,51.849,70.226,51.674,70.605,51.321"/>
<path d="M74.791,52.431c-1.013-0.399-2.153,0.099-2.552,1.109l-1.572,4c-0.398,1.011,0.099,2.152,1.109,2.55  c0.237,0.094,0.48,0.138,0.721,0.138c0.784,0,1.525-0.473,1.829-1.248L75.9,54.98C76.299,53.969,75.802,52.828,74.791,52.431"/>
<path d="M64.058,61.03l-4.096,1.512c-1.02,0.376-1.541,1.507-1.165,2.525c0.294,0.795,1.046,1.287,1.846,1.287  c0.226,0,0.456-0.039,0.681-0.121l4.096-1.511c1.019-0.377,1.54-1.507,1.164-2.526C66.208,61.177,65.076,60.655,64.058,61.03"/>
<path d="M52.487,62.202l-4.255-0.975c-1.06-0.241-2.114,0.42-2.357,1.477c-0.242,1.06,0.418,2.115,1.478,2.358l4.255,0.975  c0.147,0.034,0.296,0.05,0.442,0.05c0.896,0,1.705-0.616,1.915-1.528C54.208,63.5,53.547,62.445,52.487,62.202"/>
<path d="M36.164,39.283c-0.511-0.958-1.703-1.321-2.661-0.811c-0.958,0.512-1.322,1.704-0.811,2.662l2.054,3.852  c0.354,0.663,1.034,1.042,1.737,1.042c0.312,0,0.629-0.074,0.923-0.232c0.959-0.511,1.322-1.702,0.811-2.661L36.164,39.283z"/>
<path d="M29.647,33.306l-4.337-0.493c-1.076-0.119-2.054,0.653-2.176,1.733s0.654,2.054,1.732,2.176l4.338,0.493  c0.074,0.008,0.15,0.013,0.224,0.013c0.986,0,1.837-0.742,1.952-1.746C31.502,34.404,30.727,33.429,29.647,33.306"/>
<path d="M18.317,38.117l-3.67,2.362c-0.914,0.589-1.177,1.807-0.59,2.72c0.376,0.584,1.01,0.902,1.656,0.902  c0.366,0,0.733-0.101,1.062-0.312l3.67-2.362c0.914-0.589,1.177-1.806,0.59-2.72C20.447,37.793,19.229,37.529,18.317,38.117"/>
<path d="M42.546,51.727c-0.219-1.065-1.259-1.752-2.322-1.532c-1.064,0.219-1.749,1.259-1.531,2.323l0.879,4.277  c0.19,0.931,1.01,1.571,1.924,1.571c0.131,0,0.264-0.014,0.397-0.041c1.065-0.218,1.75-1.258,1.531-2.322L42.546,51.727z"/>
</svg>